<?xml version="1.0" encoding="UTF-8"?><svg id="Layer_2" xmlns="http://www.w3.org/2000/svg" viewBox="0 0 423.77 746.13"><defs><style>.cls-1{fill:#232020;}.cls-2{fill:#ffda34;}</style></defs><g id="Layer_1-2"><path class="cls-2" d="M415.16,669.78l-25.58-187.46-3.18-23.31-1.59-11.65c-.16-1.19-.34-2.38-.53-3.55l24.11-135.58c2.22-11.25,2.14-22.15.1-31.15-.25-1.13-.48-2.28-.75-3.39l-.97-3.13c-.61-2.12-1.36-4.1-2.24-6.13-.88-2.02-1.87-4.08-3.08-6.19-1.19-2.11-2.58-4.32-4.02-6.25-.71-.98-1.4-1.86-2.07-2.71-.68-.81-1.27-1.59-2.06-2.34l-4.23-4.26,4.21-137.22.64-20.82c.15-3.48.06-6.89-.13-10.23-.25-3.31-.65-6.54-1.24-9.62l-.47-2.28c-.16-.76-.31-1.53-.53-2.23l-1.22-4.3c-.46-1.36-.98-2.66-1.47-3.99l-.74-1.98-.83-1.86c-1.14-2.46-2.39-4.85-3.86-7.22-1.45-2.38-3.11-4.76-5.05-7.12-1.89-2.38-4.09-4.67-6.14-6.59-1.03-.98-2.02-1.84-3.01-2.66l-3.15-2.33-1.58-1.17c-.55-.38-.99-.8-1.65-1.13l-3.7-2.1-1.85-1.05c-.63-.34-1.19-.73-1.93-1l-4.23-1.74-2.11-.88c-.34-.16-.73-.27-1.12-.38l-1.17-.33-4.68-1.32c-.76-.25-1.62-.36-2.45-.51l-2.52-.43-2.51-.43-.32-.05-.45-.06-.89-.1-1.79-.22-28.58-3.42-40.82-4.89-3.65-.44-.91-.1-.64-.05-1.27-.1-2.55-.2c-.85-.05-1.72-.17-2.53-.12l-4.92.06c-.84-.02-1.6.09-2.39.16l-2.33.25c-3.21.24-5.97,1.02-8.88,1.6-1.51.26-2.72.78-4.05,1.19l-3.93,1.3c-2.51.97-4.78,1.99-7.31,3.32-2.49,1.33-5.13,2.91-7.64,4.71-2.51,1.81-4.88,3.73-6.97,5.7-2.1,1.97-3.98,3.95-5.68,5.99-.43.5-.85,1.01-1.27,1.56-.26.33-.51.65-.77.98l-6.96-.58-16.2-1.33-4.05-.34-2.03-.16-1.01-.09c-.34-.03-.69-.06-.95-.05H46.62v167.96l-21.01,2.53,4.83.54-30.44,5.71,41.36,4.77-28.23,2.15,9.14,61.75,11.47,77.46,10.83,73.15,2.71,18.28.45,3.05-8.84,27.33-20.38,62.97-7.65,23.61-.63,1.97-.16.49c-.02.08-.07.18-.07.23l.04.14.13.54.51,2.18,4.12,17.41,8.23,34.82.51,2.17.26,1.09.06.27c.03.09.02.2.17.23l.68.31,5.45,2.47,10.89,4.94,13.98,6.33-2.51,2.09,13.1,4.24.41.14.11.03h.01s-.02.1.13-.16l.53-.99,6.92,3.13,2.73,1.24.68.31.17.07c.79-1.56,1.35-2.65,1.73-3.38-.87,1.75-2.54,5.05-3.42,6.83.94-1.83,3.07-6.03,7.14-14.03.63.78,1.26,1.55,1.88,2.24,1.52,1.69,3.18,3.41,4.78,4.9,6.53,6.03,12.41,9.43,17.36,11.96,1.18.58,2.45,1.19,3.58,1.7,1.05.45,2.1.88,3.15,1.3.51.21,1.1.45,1.55.61l1.36.49,2.76.95,27.16,8.79-.85,18.68-2.91,63.86,63.86-3.01,58.39-2.76,46.61-2.19,48.73-2.3,63.6-3-8.61-63.09Z"/><path class="cls-1" d="M167.82,223.55c0,3.58-2.11,5.69-6.32,5.69h-15.78v-20.42h15.78c4.21,0,6.32,2.53,6.32,6.74v7.99ZM167.82,182.94c0,2.52-2.11,3.78-6.32,3.78h-15.78v-37.67h17.04c3.37,0,5.06,1.9,5.06,5.48v28.41ZM227.62,267.09c2.17-13.88,12.75-17.15,19.96-30.79,1.47-2.77,2.83-5.54,4.09-8.31,4.49-9.88,7.62-19.75,9.23-29.87,1.78-11.33,1.66-22.97-.61-35.3-3.28-17.78-3.12-21.19-14.67-35.13-1.8-2.17-3.62-2.28-4.84-4.19,1.05-2.43,3.16-3.69,5.86-3.02,1.63,1.92,2.58,4.18,4.39,6,.71.7,9.76,7.5,10.43,7.85,3.15,1.62,8.98-.57,14.71,3.23.8.52,1.56,1.08,2.3,1.67h.01s.07.06.11.1c.02.01.03.02.04.03.02.01.04.03.05.04.02.02.04.03.06.05s.05.03.07.06c.1.07.19.15.29.24.06.05.12.1.18.15.05.04.1.08.14.12.41.35.8.71,1.19,1.08h.01c.09.09.18.17.26.25l.02.02s.08.08.12.12c15.86,15.4,16.85,45.7,13.1,65.57-2.43,12.87-8.1,25.78-15.88,37.3v24.47c-1.59,1.31-2.89,3.35-3.82,6.09l-45.57,122.13-19.56-132.16,18.33,2.2ZM283.36,441.38l-56.99,2.69c-3.65.17-6.59,1.45-8.69,3.74l-29.32-9.49h0s-.6-.2-.6-.2l-34.87,107.72-.6-.19c-1-.33-1.07-.79-.95-1.86l9.99-98.52c.85-9.04-2.35-15.7-11.13-19.23l-6.77-45.71,3.72-.55c3.02-.45,4.59.51,6.01,3.62l17.5,41.15c3.6,8.44,8.01,11.96,16.97,11.37.19,0,.38-.02.57-.04.32-.02.65-.05.98-.09.54-.06,1.08-.12,1.65-.21l42.79-6.33-.15-1.02,25.05,6.79,11.74-31.27,17.88,4.84-4.78,32.79ZM300.22,339.04l-7.36,44.88c-.33,1.22-1.36,1.81-2.99,1.37l-9.55-2.58c-1.42-.39-2.27-1.27-1.88-2.7l16.09-42.51c.54-1.17,1.05-1.47,1.86-1.25l2.65.72c1.01.27,1.31.79,1.18,2.07ZM326.86,453.67c-.45-2.97-1.13-5.57-2.15-7.69h0s26.75-150.41,26.75-150.41c.99-6.05,0-10.46-5.08-11.84l-16.73-4.53,6.08-197.99c.12-7.62-1.88-12.87-8.37-13.64l-77.11-9.24c-6.75-.81-11.43,3.11-12.95,11.36l-28.61,133.08c-1.95-6.07-6.45-7.94-14.57-8.68,11.58-1.05,15.79-5.89,15.79-18.73v-66.71c0-22.1-4-26.1-23.15-26.1h-81.87v168.99h57.03l18.15,122.65-.69.1c-1.17.17-1.47-.25-1.87-1.38l-38.87-103.58c-3.37-8.8-9.24-13.82-18.51-13.82-1.39,0-2.86.11-4.4.34l-35.82,5.3,27.46,185.44h0s-41.93,129.57-41.93,129.57l38.64,12.5,16.98-52.46,3.2,1.04c2.61.84,3.49,2.23,3.38,5.3l-2.31,39.95c-.52,9.12,2.18,13.76,11.79,16.87l36.84,11.92,38.49-118.9-8.75,192.53,58.39-2.75.68-14.29c-8.8-14.33-15.2-29.95-18.14-45.54-5.25-27.83-3.73-70.54,19.26-91.3,1.68-1.51,3.48-2.91,5.39-4.18,7.89-5.22,15.89-2.22,20.22-4.45.92-.47,13.35-9.81,14.32-10.78,2.5-2.49,3.8-5.6,6.04-8.24,3.71-.92,6.61.82,8.05,4.16-1.67,2.62-4.17,2.76-6.64,5.74-15.88,19.15-15.66,23.84-20.16,48.26-2.32,12.61-3.01,24.7-2.19,36.48.82,11.85,3.16,23.38,6.89,34.82,3.24,9.91,7.52,19.75,12.76,29.66,3.79,7.17,8.26,12.26,12.49,16.87h0l36.36-1.71-30.57-223.99Z"/></g></svg>