<?xml version="1.0" encoding="UTF-8"?><svg id="Layer_2" xmlns="http://www.w3.org/2000/svg" xmlns:xlink="http://www.w3.org/1999/xlink" viewBox="0 0 767.89 767.89"><defs><style>.cls-1{fill:#fda03f;}.cls-2,.cls-3,.cls-4,.cls-5,.cls-6,.cls-7,.cls-8,.cls-9{stroke-linecap:round;stroke-linejoin:round;}.cls-2,.cls-3,.cls-4,.cls-5,.cls-7,.cls-8,.cls-9{stroke:#232020;}.cls-2,.cls-6{fill:#fff;}.cls-2,.cls-9{stroke-width:2.64px;}.cls-10,.cls-3{fill:#232020;}.cls-11{fill:#f7c13b;}.cls-3,.cls-7{stroke-width:5.28px;}.cls-4{fill:#f8ecb8;}.cls-4,.cls-5,.cls-6{stroke-width:10px;}.cls-5,.cls-7,.cls-8,.cls-9{fill:none;}.cls-6{stroke:#000;}.cls-8{stroke-width:12.77px;}.cls-12{clip-path:url(#clippath-1);}.cls-13{clip-path:url(#clippath-2);}.cls-14{opacity:.2;}.cls-15{fill:#fddc30;}.cls-16{clip-path:url(#clippath);}</style><clipPath id="clippath"><path class="cls-11" d="M196.04,430.92c159.35-96.7,131.11-190.52,137.47-227.59,1.91-11.13,6.26-20.62,13.09-28.07,8.82-11.39,22.14-16.59,35.52-18.62,9.5-1.44,19.39-1.28,29.05.22,9.66,1.15,19.3,3.67,28.3,7.63,8.81,3.88,17.3,9.24,23.93,16.61,14.26,11.61,27.94,26.84,28.51,42.92,1.32,37.32,1.79,166.92,40.42,210.92,41.72,47.52,154.8,46.47,169.3,114.07,16.52,77.01-191.23-3.66-253.1-61.43l-57.08-53.31s-1.93-4.18-5.12-11.65c-12.84,15.92-33.12,32.17-64.97,45.29-161.86,66.65-286.04,51.5-271.29,14.44s83.5-13.53,145.97-51.43Z"/></clipPath><clipPath id="clippath-1"><path class="cls-15" d="M561.88,526.4c-111.64-130.37-74.15-220.15-66.88-274.43,2.32-17.34,1.25-33.47-3.55-47.66-5.65-21.73-19.38-35.35-34.68-43.82-11-6.09-23.13-9.58-35.48-10.64-12.27-1.68-24.97-.97-37.25,2.52-11.96,3.4-23.83,9.44-33.73,19.54-19.97,14.21-39.39,34.12-42.73,59.13-7.27,54.28-24.59,183.7-66.75,221.37-42.16,37.67-147.26,37.23-154.9,94.29-7.64,57.06,169.17,30.19,228.09-5.61l58.92-35.8s2.53-3.43,6.87-9.69c8.31,17.05,22.69,35.14,46.98,52,110.38,76.59,206.78,84.48,210.53,56.42,4.19-31.31-39.11-35.21-75.44-77.64Z"/></clipPath><clipPath id="clippath-2"><path class="cls-15" d="M405.15,164.8s25.73-71.52,33.16-74.41c7.43-2.88,46.24,7.63,48.02,14.54,1.78,6.91-51.44,82.11-51.44,82.11l-29.74-22.25Z"/></clipPath></defs><g id="Layer_1-2"><circle class="cls-6" cx="383.94" cy="383.94" r="378.94"/><circle class="cls-4" cx="383.94" cy="383.94" r="264.94"/><path class="cls-5" d="M702.56,368.14c0-117.28-66.82-218.95-164.47-269.02"/><path class="cls-11" d="M196.04,430.92c159.35-96.7,131.11-190.52,137.47-227.59,1.91-11.13,6.26-20.62,13.09-28.07,8.82-11.39,22.14-16.59,35.52-18.62,9.5-1.44,19.39-1.28,29.05.22,9.66,1.15,19.3,3.67,28.3,7.63,8.81,3.88,17.3,9.24,23.93,16.61,14.26,11.61,27.94,26.84,28.51,42.92,1.32,37.32,1.79,166.92,40.42,210.92,41.72,47.52,154.8,46.47,169.3,114.07,16.52,77.01-191.23-3.66-253.1-61.43l-57.08-53.31s-1.93-4.18-5.12-11.65c-12.84,15.92-33.12,32.17-64.97,45.29-161.86,66.65-286.04,51.5-271.29,14.44s83.5-13.53,145.97-51.43Z"/><g class="cls-16"><path class="cls-14" d="M711.4,525.9c-13.15-21.92,27.81-14.23,12.46-34.96-15.47-20.88-89.46-29.64-134.04-63.13-44.58-33.49-63.7-84.09-86.15-116.98-12.46-18.26-9.52,13.54-25.48,41-12.97,22.31,5.58,44.42,18.44,62.49,15.76,22.13,30.51,45.73,49.91,65.42,17.54,17.81,38.34,33.1,59.99,46.5,22.94,14.2,46.44,27.72,75.19,25.18,3.92-.35,7.25-2.22,9.77-4.84,12.75,2.49,27.76-7.59,19.91-20.68Z"/><path class="cls-14" d="M81.58,537.48c15.56-20.56-26.05-16.79-8.43-35.95,17.75-19.31,92.34-21.02,140.48-50.12,48.14-29.09,72.9-77.62,98.95-108.21,14.46-16.98,7.94,14.37,20.7,43.19,10.37,23.41-10.58,43.65-25.43,60.41-18.18,20.52-35.53,42.59-57.06,60.35-19.46,16.05-41.88,29.29-64.94,40.58-24.42,11.95-49.33,23.18-77.64,17.94-3.86-.71-6.96-2.89-9.17-5.73-12.96,1.27-26.75-10.18-17.46-22.45Z"/></g><path class="cls-8" d="M196.04,430.92c159.35-96.7,131.11-190.52,137.47-227.59,1.91-11.13,6.26-20.62,13.09-28.07,8.82-11.39,22.14-16.59,35.52-18.62,9.5-1.44,19.39-1.28,29.05.22,9.66,1.15,19.3,3.67,28.3,7.63,8.81,3.88,17.3,9.24,23.93,16.61,14.26,11.61,27.94,26.84,28.51,42.92,1.32,37.32,1.79,166.92,40.42,210.92,41.72,47.52,154.8,46.47,169.3,114.07,16.52,77.01-191.23-3.66-253.1-61.43l-57.08-53.31s-1.93-4.18-5.12-11.65c-12.84,15.92-33.12,32.17-64.97,45.29-161.86,66.65-286.04,51.5-271.29,14.44s83.5-13.53,145.97-51.43Z"/><path class="cls-15" d="M561.88,526.4c-111.64-130.37-74.15-220.15-66.88-274.43,2.32-17.34,1.25-33.47-3.55-47.66-5.65-21.73-19.38-35.35-34.68-43.82-11-6.09-23.13-9.58-35.48-10.64-12.27-1.68-24.97-.97-37.25,2.52-11.96,3.4-23.83,9.44-33.73,19.54-19.97,14.21-39.39,34.12-42.73,59.13-7.27,54.28-24.59,183.7-66.75,221.37-42.16,37.67-147.26,37.23-154.9,94.29-7.64,57.06,169.17,30.19,228.09-5.61l58.92-35.8s2.53-3.43,6.87-9.69c8.31,17.05,22.69,35.14,46.98,52,110.38,76.59,206.78,84.48,210.53,56.42,4.19-31.31-39.11-35.21-75.44-77.64Z"/><g class="cls-12"><g class="cls-14"><path d="M95.81,564.15c48.13-3.22,101.39-14.62,146.48-30.34,45.09-15.72,98.79-49.76,127.19-85.4-.6,16.19,3.67,29.9,7.49,46.5-4.09,15.04-23.89,42.34-35.83,53.35-15.59,14.37-31.86,29.15-52.6,36.24-20.42,6.98-42.99,5.73-64.67,3.67-40.59-3.87-80.88-10.29-120.51-19.21"/></g><path class="cls-14" d="M325,165.54s90.42-27.21,128.66,36.39c38.23,63.59,32.9,139.06,32.9,139.06l122.09-87.21-137.36-126.99-151.36-4.19,5.08,42.94Z"/><g class="cls-14"><path d="M482,329.1c-48.6,278.43,194.89,242.53,177.61,321.58,14.75-67.46-18.15-163.07-67.78-214.84"/></g></g><path class="cls-10" d="M373.93,422.79c-8.67,27.27-3.13,58.01,12.19,81.86,15.23,24.38,39.47,40.82,63.61,55.48,40.42,24.34,84.21,44.92,130.92,53.01,13.88,2.15,41.48,5.13,51.1-5.78,1.07-1.33,1.54-2.93,1.66-4.59.22-2.09.18-4.13-.13-6.1-1.36-8.55-8.25-14.52-15.1-19.62-3.71-2.74-7.64-5.33-11.62-7.95-16.21-10.43-32.39-21.93-45.47-36.42-32.09-36.18-59.13-77.72-73.59-124.23-15.2-46.64-13.36-96.75-3.97-144.29,4.11-22.08,8.07-45.82-.97-67.07-25.66-57.74-111.8-47.75-147.1-4.89-24.19,29.42-25.49,68.44-31.36,104.95-1.17,8.1-3.57,20.15-5.03,28.38-10.08,55.55-23.62,124.85-81.99,148.97-26.15,11.96-54.82,18.74-80.84,29.67-16.98,7.3-35.43,16.92-42.51,34.53-4.21,11.33-3.81,20.48,7.92,26.95,11.84,6.32,25.68,7.81,39.21,8.65,9.29.48,18.68.3,28.07-.22,46.36-3.03,109.21-15.19,148.86-39.79,11.84-7.15,25.06-14.38,35.87-22.84,7.46-5.69,14.51-11.93,21.06-18.67,2.9-2.84,7.17,1.26,4.49,4.27-9.92,10.66-21.04,20.22-33.06,28.45-7.05,4.91-17.09,10.76-24.35,15.38-28.62,18.46-62.02,27.74-94.9,35.05-33.93,7.19-121.95,21.02-143.12-12.24-8.72-14.42-.56-34.69,9.92-45.99,10.27-11.19,24.38-18.59,37.9-24.44,26.74-11.44,54.29-18,80.25-30.02,16.91-7.54,30.65-18.61,40.65-34.14,20.42-31.4,27.08-69.42,33.81-105.92,5.86-28.24,7.79-56.43,14.16-85.06,4.44-19.38,11.98-38.77,25.05-54.25,19.7-23.35,49.41-36.67,79.5-39.48,36.18-3.67,74.49,12.93,88.95,47.9,6.86,16.61,7.43,35.1,4.97,52.52-2.41,16.53-6.04,32.96-8.23,49.43-12.16,77.91,12.14,148.52,59.6,210.1,11.32,14.9,23.15,29.48,38.05,41.02,11,8.92,23.4,16.27,34.91,24.84,10.89,8.02,20.11,18.69,18.12,33.41-3.11,24.28-44.88,19.51-61.95,16.44-47.44-9.01-91.55-30.6-132.06-56.23-16.09-10.45-32.35-21.09-45.66-35.07-27.37-27.74-40.82-68.26-27.82-105.98h0Z"/><ellipse class="cls-3" cx="361.35" cy="270.08" rx="16.89" ry="3.83" transform="translate(45.34 592.02) rotate(-82.31)"/><ellipse class="cls-2" cx="357.54" cy="269.65" rx="16.89" ry="3.83" transform="translate(42.46 587.88) rotate(-82.31)"/><ellipse class="cls-3" cx="409.67" cy="275.47" rx="16.89" ry="3.83" transform="translate(81.84 644.58) rotate(-82.31)"/><ellipse class="cls-2" cx="405.86" cy="275.05" rx="16.89" ry="3.83" transform="translate(78.97 640.44) rotate(-82.31)"/><path class="cls-15" d="M405.15,164.8s25.73-71.52,33.16-74.41c7.43-2.88,46.24,7.63,48.02,14.54,1.78,6.91-51.44,82.11-51.44,82.11l-29.74-22.25Z"/><g class="cls-13"><path class="cls-14" d="M488.45,89.98s-27.11,16.75-31.23,24.41c-4.12,7.66-39.79,76.42-36.42,77.86,3.38,1.44,19.06-4.65,19.06-4.65l74.02-83.48-25.44-14.14Z"/></g><path class="cls-7" d="M442.31,195.71s-6.99-3.94-7.42-8.66c-.43-4.72,53.22-75.21,51.44-82.11-1.78-6.91-40.59-17.43-48.02-14.54-7.43,2.88-29.74,73.08-33.16,74.41-3.42,1.33-10.18.57-10.18.57"/><path class="cls-7" d="M430.25,102.71s23.76,5.56,28.54,9.5c4.77,3.95,17.44,13.12,17.44,13.12"/><path class="cls-9" d="M426.53,178.37c15.17-34.5,28.95-70.9,49.67-80.32"/><polygon class="cls-1" points="366.6 309.39 366.5 337.01 399.24 347.41 418.15 337.69 432.84 316.79 431.06 308.35 383.22 306.54 366.6 309.39"/><path class="cls-2" d="M356.01,309.96l2.49,10.28s60.48-5.44,70.86-2.09c3.79,1.03,1.71-9.79,1.71-9.79,0,0-19.61-5.03-30.61-3.42-11,1.62-44.44,5.02-44.44,5.02Z"/><path class="cls-2" d="M347.32,331.37l5.6-6.8s46.95,12.08,63.37,12.15c16.42.07-19.91,9.09-19.91,9.09l-49.06-14.44Z"/><path class="cls-7" d="M325.29,298.37s-5.36,13.06,3.79,14.08c9.14,1.02,100.93-14.63,103.38-2.11,2.45,12.52-16.85,39.08-39.89,35.1-23.04-3.99-57.61-19.15-57.61-19.15"/></g></svg>